<svg width="24" height="26" viewBox="0 0 24 26" fill="none" xmlns="http://www.w3.org/2000/svg">
<path d="M23.7275 18.9931C23.0337 17.7981 22.0025 14.4168 22.0025 10.0006C22.0025 7.3484 20.9489 4.80486 19.0735 2.92949C17.1982 1.05413 14.6546 0.00056076 12.0025 0.00056076C9.35029 0.00056076 6.80675 1.05413 4.93139 2.92949C3.05603 4.80486 2.00246 7.3484 2.00246 10.0006C2.00246 14.4181 0.969957 17.7981 0.276207 18.9931C0.0990456 19.2969 0.00512537 19.642 0.00391804 19.9937C0.00271071 20.3454 0.0942592 20.6912 0.269331 20.9962C0.444403 21.3012 0.696807 21.5546 1.00109 21.731C1.30537 21.9073 1.65077 22.0003 2.00246 22.0006H7.10371C7.33442 23.1295 7.94799 24.1441 8.84062 24.8728C9.73326 25.6014 10.8502 25.9994 12.0025 25.9994C13.1547 25.9994 14.2717 25.6014 15.1643 24.8728C16.0569 24.1441 16.6705 23.1295 16.9012 22.0006H22.0025C22.354 22.0001 22.6993 21.9069 23.0034 21.7305C23.3075 21.5541 23.5597 21.3006 23.7346 20.9956C23.9096 20.6907 24.001 20.345 23.9997 19.9934C23.9985 19.6418 23.9046 19.2968 23.7275 18.9931ZM12.0025 24.0006C11.3822 24.0004 10.7773 23.8079 10.271 23.4498C9.7646 23.0916 9.3817 22.5853 9.17496 22.0006H14.83C14.6232 22.5853 14.2403 23.0916 13.734 23.4498C13.2276 23.8079 12.6227 24.0004 12.0025 24.0006ZM2.00246 20.0006C2.96496 18.3456 4.00246 14.5106 4.00246 10.0006C4.00246 7.87883 4.84531 5.844 6.3456 4.34371C7.84589 2.84342 9.88073 2.00056 12.0025 2.00056C14.1242 2.00056 16.159 2.84342 17.6593 4.34371C19.1596 5.844 20.0025 7.87883 20.0025 10.0006C20.0025 14.5068 21.0375 18.3418 22.0025 20.0006H2.00246Z" fill="#161616"/>
</svg>
