<svg width="33" height="31" viewBox="0 0 33 31" fill="none" xmlns="http://www.w3.org/2000/svg">
<g clip-path="url(#clip0_136_3490)">
<path d="M24.8334 15.5C23.4286 15.5016 22.0481 15.1444 20.8313 14.4643C19.6144 13.7843 18.6041 12.8055 17.9022 11.6266C17.2003 10.4478 16.8317 9.11046 16.8334 7.74955C16.8351 6.38863 17.2072 5.05221 17.912 3.875H6.48937L6.43337 3.42033C6.31847 2.47819 5.85079 1.60962 5.11896 0.979218C4.38713 0.34882 3.44201 0.00040408 2.46271 0L2.16671 0C1.81309 0 1.47395 0.136086 1.2239 0.37832C0.97385 0.620555 0.833374 0.949095 0.833374 1.29167C0.833374 1.63424 0.97385 1.96278 1.2239 2.20501C1.47395 2.44725 1.81309 2.58333 2.16671 2.58333H2.46271C2.78929 2.58337 3.10449 2.69953 3.34854 2.90976C3.59258 3.11999 3.7485 3.40968 3.78671 3.72387L5.62137 18.8364C5.81184 20.4081 6.59134 21.8573 7.81192 22.909C9.03249 23.9607 10.6092 24.5417 12.2427 24.5417H26.1667C26.5203 24.5417 26.8595 24.4056 27.1095 24.1633C27.3596 23.9211 27.5 23.5926 27.5 23.25C27.5 22.9074 27.3596 22.5789 27.1095 22.3367C26.8595 22.0944 26.5203 21.9583 26.1667 21.9583H12.2427C11.4172 21.9564 10.6126 21.707 9.93917 21.2445C9.26575 20.782 8.75653 20.129 8.48137 19.375H24.376C25.9391 19.3751 27.4525 18.8431 28.6518 17.8721C29.8511 16.901 30.6601 15.5526 30.9374 14.0624L31.2547 12.3587C30.513 13.3328 29.5456 14.1246 28.4302 14.6702C27.3149 15.2158 26.0829 15.5 24.8334 15.5V15.5Z" fill="#F86624"/>
<path d="M10.1666 31.0008C11.6394 31.0008 12.8333 29.8442 12.8333 28.4175C12.8333 26.9908 11.6394 25.8342 10.1666 25.8342C8.69384 25.8342 7.49994 26.9908 7.49994 28.4175C7.49994 29.8442 8.69384 31.0008 10.1666 31.0008Z" fill="#F86624"/>
<path d="M23.5 31.0008C24.9728 31.0008 26.1667 29.8442 26.1667 28.4175C26.1667 26.9908 24.9728 25.8342 23.5 25.8342C22.0273 25.8342 20.8334 26.9908 20.8334 28.4175C20.8334 29.8442 22.0273 31.0008 23.5 31.0008Z" fill="#F86624"/>
<path d="M21.8109 11.5549C22.0402 11.7948 22.3173 11.9872 22.6255 12.1204C22.9338 12.2536 23.2667 12.3249 23.6042 12.3299H23.6482C23.9789 12.3309 24.3066 12.2683 24.6121 12.1457C24.9177 12.0231 25.1951 11.8429 25.4282 11.6156L31.1242 6.09759C31.3754 5.8547 31.5168 5.52508 31.5172 5.18123C31.5175 4.83738 31.3769 4.50746 31.1262 4.26407C30.8755 4.02067 30.5352 3.88373 30.1803 3.88336C29.8253 3.883 29.4848 4.01925 29.2335 4.26213L23.6508 9.67938L22.0055 7.96921C21.764 7.71862 21.4296 7.57124 21.0759 7.55949C20.7222 7.54774 20.3782 7.67259 20.1195 7.90657C19.8608 8.14054 19.7087 8.46448 19.6966 8.80712C19.6845 9.14976 19.8133 9.48304 20.0549 9.73363L21.8109 11.5549Z" fill="#F86624"/>
</g>
<defs>
<clipPath id="clip0_136_3490">
<rect width="32" height="31" fill="white" transform="translate(0.833374)"/>
</clipPath>
</defs>
</svg>
