<svg width="26" height="24" viewBox="0 0 26 24" fill="none" xmlns="http://www.w3.org/2000/svg">
<path d="M23.9998 0H1.99979C1.46936 0 0.960651 0.210714 0.585578 0.585786C0.210506 0.960859 -0.000207923 1.46957 -0.000207923 2V22C-0.00251427 22.3814 0.105375 22.7553 0.310492 23.0768C0.515609 23.3984 0.809224 23.6538 1.15604 23.8125C1.42033 23.9356 1.70826 23.9995 1.99979 24C2.4693 23.9989 2.92323 23.8315 3.28104 23.5275C3.28701 23.5236 3.29246 23.519 3.29729 23.5138L7.31229 20H23.9998C24.5302 20 25.0389 19.7893 25.414 19.4142C25.7891 19.0391 25.9998 18.5304 25.9998 18V2C25.9998 1.46957 25.7891 0.960859 25.414 0.585786C25.0389 0.210714 24.5302 0 23.9998 0ZM23.9998 18H7.31229C6.84132 17.9998 6.38538 18.1658 6.02479 18.4688L6.00979 18.4825L1.99979 22V2H23.9998V18Z" fill="#161616"/>
</svg>
