<svg width="20" height="20" viewBox="0 0 20 20" fill="none" xmlns="http://www.w3.org/2000/svg">
<path d="M7.375 0.5H2.125C1.66087 0.5 1.21575 0.684374 0.887563 1.01256C0.559374 1.34075 0.375 1.78587 0.375 2.25V7.5C0.375 7.96413 0.559374 8.40925 0.887563 8.73744C1.21575 9.06563 1.66087 9.25 2.125 9.25H7.375C7.83913 9.25 8.28425 9.06563 8.61244 8.73744C8.94063 8.40925 9.125 7.96413 9.125 7.5V2.25C9.125 1.78587 8.94063 1.34075 8.61244 1.01256C8.28425 0.684374 7.83913 0.5 7.375 0.5ZM7.375 7.5H2.125V2.25H7.375V7.5ZM17.875 0.5H12.625C12.1609 0.5 11.7158 0.684374 11.3876 1.01256C11.0594 1.34075 10.875 1.78587 10.875 2.25V7.5C10.875 7.96413 11.0594 8.40925 11.3876 8.73744C11.7158 9.06563 12.1609 9.25 12.625 9.25H17.875C18.3391 9.25 18.7842 9.06563 19.1124 8.73744C19.4406 8.40925 19.625 7.96413 19.625 7.5V2.25C19.625 1.78587 19.4406 1.34075 19.1124 1.01256C18.7842 0.684374 18.3391 0.5 17.875 0.5ZM17.875 7.5H12.625V2.25H17.875V7.5ZM7.375 11H2.125C1.66087 11 1.21575 11.1844 0.887563 11.5126C0.559374 11.8408 0.375 12.2859 0.375 12.75V18C0.375 18.4641 0.559374 18.9092 0.887563 19.2374C1.21575 19.5656 1.66087 19.75 2.125 19.75H7.375C7.83913 19.75 8.28425 19.5656 8.61244 19.2374C8.94063 18.9092 9.125 18.4641 9.125 18V12.75C9.125 12.2859 8.94063 11.8408 8.61244 11.5126C8.28425 11.1844 7.83913 11 7.375 11ZM7.375 18H2.125V12.75H7.375V18ZM17.875 11H12.625C12.1609 11 11.7158 11.1844 11.3876 11.5126C11.0594 11.8408 10.875 12.2859 10.875 12.75V18C10.875 18.4641 11.0594 18.9092 11.3876 19.2374C11.7158 19.5656 12.1609 19.75 12.625 19.75H17.875C18.3391 19.75 18.7842 19.5656 19.1124 19.2374C19.4406 18.9092 19.625 18.4641 19.625 18V12.75C19.625 12.2859 19.4406 11.8408 19.1124 11.5126C18.7842 11.1844 18.3391 11 17.875 11ZM17.875 18H12.625V12.75H17.875V18Z" fill="#007DFC"/>
</svg>
