<svg width="22" height="22" viewBox="0 0 22 22" fill="none" xmlns="http://www.w3.org/2000/svg">
<path d="M9.25 20.625C9.25 20.8571 9.15781 21.0796 8.99372 21.2437C8.82962 21.4078 8.60706 21.5 8.375 21.5H2.25C1.78587 21.5 1.34075 21.3156 1.01256 20.9874C0.684374 20.6592 0.5 20.2141 0.5 19.75V2.25C0.5 1.78587 0.684374 1.34075 1.01256 1.01256C1.34075 0.684374 1.78587 0.5 2.25 0.5H8.375C8.60706 0.5 8.82962 0.592187 8.99372 0.756282C9.15781 0.920376 9.25 1.14294 9.25 1.375C9.25 1.60706 9.15781 1.82962 8.99372 1.99372C8.82962 2.15781 8.60706 2.25 8.375 2.25H2.25V19.75H8.375C8.60706 19.75 8.82962 19.8422 8.99372 20.0063C9.15781 20.1704 9.25 20.3929 9.25 20.625ZM21.2441 10.3809L16.8691 6.00594C16.7049 5.84175 16.4822 5.74951 16.25 5.74951C16.0178 5.74951 15.7951 5.84175 15.6309 6.00594C15.4668 6.17012 15.3745 6.39281 15.3745 6.625C15.3745 6.85719 15.4668 7.07988 15.6309 7.24406L18.513 10.125H8.375C8.14294 10.125 7.92038 10.2172 7.75628 10.3813C7.59219 10.5454 7.5 10.7679 7.5 11C7.5 11.2321 7.59219 11.4546 7.75628 11.6187C7.92038 11.7828 8.14294 11.875 8.375 11.875H18.513L15.6309 14.7559C15.4668 14.9201 15.3745 15.1428 15.3745 15.375C15.3745 15.6072 15.4668 15.8299 15.6309 15.9941C15.7951 16.1582 16.0178 16.2505 16.25 16.2505C16.4822 16.2505 16.7049 16.1582 16.8691 15.9941L21.2441 11.6191C21.3254 11.5378 21.39 11.4413 21.434 11.3351C21.478 11.2288 21.5007 11.115 21.5007 11C21.5007 10.885 21.478 10.7712 21.434 10.6649C21.39 10.5587 21.3254 10.4622 21.2441 10.3809Z" fill="#8C8C8C"/>
</svg>
