<svg width="41" height="40" viewBox="0 0 41 40" fill="none" xmlns="http://www.w3.org/2000/svg">
<g clip-path="url(#clip0_136_3502)">
<path d="M32.3334 6.66718H9.00002C6.7907 6.66982 4.67262 7.54865 3.11039 9.11088C1.54816 10.6731 0.669333 12.7912 0.666687 15.0005L0.666687 25.0005C0.669333 27.2098 1.54816 29.3279 3.11039 30.8901C4.67262 32.4524 6.7907 33.3312 9.00002 33.3338H32.3334C34.5427 33.3312 36.6608 32.4524 38.223 30.8901C39.7852 29.3279 40.664 27.2098 40.6667 25.0005V15.0005C40.664 12.7912 39.7852 10.6731 38.223 9.11088C36.6608 7.54865 34.5427 6.66982 32.3334 6.66718ZM7.33335 28.3338C7.00372 28.3338 6.68149 28.2361 6.4074 28.053C6.13332 27.8698 5.9197 27.6095 5.79355 27.305C5.66741 27.0004 5.6344 26.6653 5.69871 26.342C5.76302 26.0187 5.92175 25.7218 6.15484 25.4887C6.38793 25.2556 6.6849 25.0968 7.0082 25.0325C7.3315 24.9682 7.66662 25.0012 7.97116 25.1274C8.2757 25.2535 8.536 25.4671 8.71914 25.7412C8.90227 26.0153 9.00002 26.3375 9.00002 26.6672C9.00002 27.1092 8.82442 27.5331 8.51186 27.8457C8.1993 28.1582 7.77538 28.3338 7.33335 28.3338ZM7.33335 15.0005C7.00372 15.0005 6.68149 14.9028 6.4074 14.7196C6.13332 14.5365 5.9197 14.2762 5.79355 13.9716C5.66741 13.6671 5.6344 13.332 5.69871 13.0087C5.76302 12.6854 5.92175 12.3884 6.15484 12.1553C6.38793 11.9222 6.6849 11.7635 7.0082 11.6992C7.3315 11.6349 7.66662 11.6679 7.97116 11.794C8.2757 11.9202 8.536 12.1338 8.71914 12.4079C8.90227 12.682 9.00002 13.0042 9.00002 13.3338C9.00002 13.7759 8.82442 14.1998 8.51186 14.5124C8.1993 14.8249 7.77538 15.0005 7.33335 15.0005ZM20.6667 26.6672C19.3481 26.6672 18.0592 26.2762 16.9629 25.5436C15.8666 24.8111 15.0121 23.7699 14.5075 22.5517C14.0029 21.3336 13.8709 19.9931 14.1281 18.6999C14.3854 17.4067 15.0203 16.2188 15.9526 15.2865C16.885 14.3541 18.0729 13.7192 19.3661 13.4619C20.6593 13.2047 21.9997 13.3367 23.2179 13.8413C24.4361 14.3459 25.4773 15.2004 26.2098 16.2967C26.9424 17.393 27.3334 18.682 27.3334 20.0005C27.3334 21.7686 26.631 23.4643 25.3807 24.7146C24.1305 25.9648 22.4348 26.6672 20.6667 26.6672ZM34 28.3338C33.6704 28.3338 33.3482 28.2361 33.0741 28.053C32.8 27.8698 32.5864 27.6095 32.4602 27.305C32.3341 27.0004 32.3011 26.6653 32.3654 26.342C32.4297 26.0187 32.5884 25.7218 32.8215 25.4887C33.0546 25.2556 33.3516 25.0968 33.6749 25.0325C33.9982 24.9682 34.3333 25.0012 34.6378 25.1274C34.9424 25.2535 35.2027 25.4671 35.3858 25.7412C35.5689 26.0153 35.6667 26.3375 35.6667 26.6672C35.6667 27.1092 35.4911 27.5331 35.1785 27.8457C34.866 28.1582 34.442 28.3338 34 28.3338ZM34 15.0005C33.6704 15.0005 33.3482 14.9028 33.0741 14.7196C32.8 14.5365 32.5864 14.2762 32.4602 13.9716C32.3341 13.6671 32.3011 13.332 32.3654 13.0087C32.4297 12.6854 32.5884 12.3884 32.8215 12.1553C33.0546 11.9222 33.3516 11.7635 33.6749 11.6992C33.9982 11.6349 34.3333 11.6679 34.6378 11.794C34.9424 11.9202 35.2027 12.1338 35.3858 12.4079C35.5689 12.682 35.6667 13.0042 35.6667 13.3338C35.6667 13.7759 35.4911 14.1998 35.1785 14.5124C34.866 14.8249 34.442 15.0005 34 15.0005ZM24 20.0005C24 20.6598 23.8045 21.3042 23.4383 21.8524C23.072 22.4006 22.5514 22.8278 21.9423 23.0801C21.3332 23.3324 20.663 23.3984 20.0164 23.2698C19.3698 23.1412 18.7758 22.8237 18.3097 22.3575C17.8435 21.8914 17.526 21.2974 17.3974 20.6508C17.2688 20.0042 17.3348 19.334 17.5871 18.7249C17.8394 18.1158 18.2666 17.5952 18.8148 17.2289C19.3629 16.8627 20.0074 16.6672 20.6667 16.6672C21.5507 16.6672 22.3986 17.0184 23.0237 17.6435C23.6488 18.2686 24 19.1165 24 20.0005Z" fill="#883DCF"/>
</g>
<defs>
<clipPath id="clip0_136_3502">
<rect width="40" height="40" fill="white" transform="translate(0.666687)"/>
</clipPath>
</defs>
</svg>
